<svg xmlns="http://www.w3.org/2000/svg" width="1200" height="1500" viewBox="0 0 1200 1500" role="img" aria-labelledby="title desc">
  <title id="title">Sit Tight — a chair holding a revolver</title>
  <desc id="desc">A mischievous red upholstered armchair, wearing a cowboy hat, holds a large old-fashioned revolver in a gloved hand. A warm, retro western poster.</desc>
  <defs>
    <pattern id="paper" width="39" height="37" patternUnits="userSpaceOnUse">
      <circle cx="3" cy="6" r="1.3" fill="#986E4E" opacity=".16"/>
      <circle cx="28" cy="19" r=".9" fill="#986E4E" opacity=".14"/>
      <path d="M16 32h3M34 3h2" stroke="#986E4E" opacity=".14" stroke-width="1.5"/>
    </pattern>
    <pattern id="weave" width="13" height="13" patternUnits="userSpaceOnUse" patternTransform="rotate(29)">
      <path d="M0 0v13" stroke="#F2A174" stroke-width="2" opacity=".18"/>
    </pattern>
    <clipPath id="sun"><circle cx="595" cy="785" r="429"/></clipPath>
    <g id="star"><path d="M0-13 3.6-3.6 13 0 3.6 3.6 0 13-3.6 3.6-13 0-3.6-3.6Z"/></g>
  </defs>

  <!-- The aged-paper poster and its engraved double border. -->
  <rect width="1200" height="1500" fill="#F6EBD6"/>
  <rect width="1200" height="1500" fill="url(#paper)"/>
  <rect x="44" y="44" width="1112" height="1412" rx="9" fill="none" stroke="#263A39" stroke-width="5"/>
  <rect x="57" y="57" width="1086" height="1386" rx="3" fill="none" stroke="#BE7654" stroke-width="2"/>
  <path d="M75 333h1050M75 1295h1050" stroke="#263A39" stroke-width="3"/>
  <path d="M74 344h1052M74 1284h1052" stroke="#BE7654" stroke-width="1.5"/>
  <path d="M87 76h114M999 76h114M87 1424h114M999 1424h114" stroke="#263A39" stroke-width="3" stroke-linecap="round"/>
  <g fill="#BE7654"><use href="#star" transform="translate(96 91) scale(.55)"/><use href="#star" transform="translate(1104 91) scale(.55)"/></g>

  <!-- Lettering. -->
  <g text-anchor="middle" fill="#263A39">
    <text x="600" y="127" font-family="Avenir Next Condensed, Avenir, sans-serif" font-size="24" font-weight="800" letter-spacing="8">A ONE-SEAT WESTERN</text>
    <text x="600" y="266" font-family="Impact, Arial Black, sans-serif" font-size="150" letter-spacing="3">SIT TIGHT.</text>
    <text x="600" y="313" font-family="Avenir Next Condensed, Avenir, sans-serif" font-size="24" font-weight="800" letter-spacing="5.2">THIS CHAIR HAS THE FLOOR</text>
  </g>
  <g stroke="#263A39" stroke-width="2.5" stroke-linecap="round">
    <path d="M250 300h112M838 300h112"/>
  </g>
  <g fill="#B85D43"><use href="#star" transform="translate(229 300) scale(.65)"/><use href="#star" transform="translate(971 300) scale(.65)"/></g>

  <!-- Flat, screen-printed sunburst behind the character. -->
  <circle cx="595" cy="785" r="439" fill="#E8C796" stroke="#263A39" stroke-width="4"/>
  <circle cx="595" cy="785" r="429" fill="#EDD3A5" stroke="#F8E5BE" stroke-width="6"/>
  <g clip-path="url(#sun)" fill="#D9A969" opacity=".36">
    <path d="M595 783 216 359 341 357Z M595 783 416 344 482 340Z M595 783 696 338 774 350Z M595 783 924 410 1033 526Z M595 783 1021 691 1032 760Z M595 783 1007 991 931 1110Z M595 783 745 1200 676 1215Z M595 783 445 1214 377 1200Z M595 783 208 1050 159 957Z M595 783 157 697 167 629Z"/>
  </g>
  <g clip-path="url(#sun)" fill="none" stroke="#C3915D" opacity=".48">
    <circle cx="595" cy="785" r="392" stroke-width="2"/>
    <circle cx="595" cy="785" r="373" stroke-width="1.5" stroke-dasharray="4 12"/>
    <path d="M148 1059h884M160 1080h872M175 1101h844M209 1122h773M260 1143h666" stroke-width="2"/>
  </g>
  <g fill="#F7E6C4" opacity=".78">
    <use href="#star" transform="translate(206 494) scale(1.45)"/>
    <use href="#star" transform="translate(978 457) scale(.92)"/>
    <use href="#star" transform="translate(1055 888) scale(.75)"/>
    <circle cx="203" cy="547" r="4"/><circle cx="960" cy="511" r="3"/>
  </g>

  <!-- A tiny hint of desert. -->
  <g fill="#52675A" stroke="#263A39" stroke-width="5" stroke-linejoin="round">
    <path d="M154 1156v-94q0-14 11-14t11 14v32q0 10 11 10t11-10v-20q0-12 10-12t10 12v20q0 30-29 30h-13v32Z"/>
    <path d="M1027 1166v-113q0-14 10-14t10 14v34q0 10 11 10t11-10v-16q0-12 10-12t10 12v22q0 27-28 27h-14v46Z"/>
  </g>
  <path d="M111 1170q74-12 139-1m680 2q92-13 163 0" fill="none" stroke="#263A39" stroke-width="4" stroke-linecap="round"/>
  <ellipse cx="596" cy="1194" rx="345" ry="37" fill="#805C46" opacity=".23"/>
  <path d="M217 1195q366 31 741 0" fill="none" stroke="#263A39" stroke-width="4" opacity=".62" stroke-linecap="round"/>

  <!-- Chair: rear legs and solid, tapered front legs. -->
  <g stroke="#263A39" stroke-width="13" stroke-linejoin="round">
    <path d="M353 966 419 976 401 1090Q395 1114 373 1118l-27-12Z" fill="#803C32"/>
    <path d="M766 979 820 954 862 1101q-11 17-37 11Z" fill="#803C32"/>
    <path d="M391 957 479 963 442 1179q-4 17-28 17h-29q-15-1-11-19Z" fill="#263A39"/>
    <path d="M712 961 802 958 813 1177q1 18-19 19h-31q-20-1-24-18Z" fill="#263A39"/>
  </g>
  <path d="M413 1019 392 1155M751 1017l24 139" fill="none" stroke="#64807A" stroke-width="13" stroke-linecap="round"/>
  <path d="m377 1153-3 25q-4 18 11 19h29q25 0 28-17l4-27Zm375 1 4 25q4 18 24 18h18q17 0 15-20l-1-23Z" fill="#DFA665" stroke="#263A39" stroke-width="9" stroke-linejoin="round"/>
  <path d="M387 1172h45m334 0h38" stroke="#F8D69A" stroke-width="5" stroke-linecap="round"/>

  <!-- Tall, upholstered back: a chair first, a desperado second. -->
  <path d="M431 464C351 474 316 544 325 635l12 165q2 67 59 97l382-2q67-33 74-104l7-158c5-99-43-154-122-170q-152-28-306 1Z" fill="#263A39" stroke="#263A39" stroke-width="15" stroke-linejoin="round"/>
  <path d="M433 491c-55 10-79 68-72 142l10 153q4 49 69 71 137 39 307 0 70-19 74-77l7-155q5-94-102-132-145-29-293-2Z" fill="#BF6048" stroke="#F29A71" stroke-width="5" stroke-linejoin="round"/>
  <path d="M433 491c-55 10-79 68-72 142l10 153q4 49 69 71 137 39 307 0 70-19 74-77l7-155q5-94-102-132-145-29-293-2Z" fill="url(#weave)"/>
  <path d="M448 531q124-35 268-5 61 13 69 86l-4 155q-2 37-38 51-143 43-301 3-31-10-34-49l-9-143q-1-66 49-98Z" fill="#CE7050" stroke="#984633" stroke-width="5"/>
  <path d="M418 756q2 53 41 67m286-4q34-13 37-59" fill="none" stroke="#EB9C71" stroke-width="9" opacity=".8" stroke-linecap="round"/>
  <path d="M387 581q-6 96 3 170m411-167q8 84 0 156" fill="none" stroke="#F4AB78" stroke-width="7" opacity=".75" stroke-linecap="round"/>
  <g stroke="#E79A72" stroke-width="3" stroke-linecap="round" opacity=".8">
    <path d="m390 634 10 4m-9 19 10 4m-8 19 10 4m-8 19 10 4m-8 19 10 4m-6 19 9 3"/>
    <path d="m793 637 10-4m-11 24 10-4m-11 24 10-4m-11 24 10-4m-11 24 10-4m-11 24 10-4"/>
  </g>

  <!-- Face stitched into the back cushion. -->
  <path d="M463 630q36-33 82-9m83-2q44-31 82 4" fill="none" stroke="#263A39" stroke-width="18" stroke-linecap="round"/>
  <path d="M475 657q26-27 66-13 11 5 11 18-7 28-43 27-30-1-34-32Zm150 3q17-28 57-21 27 4 29 25-9 30-45 27-34-3-41-31Z" fill="#F9ECD2" stroke="#263A39" stroke-width="8" stroke-linejoin="round"/>
  <ellipse cx="524" cy="660" rx="15" ry="23" fill="#263A39"/>
  <ellipse cx="683" cy="661" rx="15" ry="23" fill="#263A39"/>
  <circle cx="529" cy="650" r="5.5" fill="#FFF6DD"/><circle cx="688" cy="651" r="5.5" fill="#FFF6DD"/>
  <path d="M567 691q18 14 35 1m-31 65q56 32 105-12" fill="none" stroke="#263A39" stroke-width="8" stroke-linecap="round"/>
  <path d="M640 756q19 1 31-12" fill="none" stroke="#F9E8CE" stroke-width="5" stroke-linecap="round"/>
  <path d="m548 750-11 4m149-18 12-8" stroke="#8B3F33" stroke-width="5" stroke-linecap="round"/>
  <g fill="#E48B68" opacity=".9"><circle cx="464" cy="709" r="6"/><circle cx="475" cy="717" r="3"/><circle cx="720" cy="709" r="6"/><circle cx="733" cy="700" r="3"/></g>

  <!-- Brim and hat cast a crisp shadow over the chair's forehead. -->
  <path d="M371 501q213 44 448-3l-25 52q-199 22-395-2Z" fill="#8E4134" opacity=".34"/>
  <path d="M436 484q8-54 24-88 9-23 31-14 57 29 100 29 62 0 103-29 20-12 31 12l33 91q-132 39-322-1Z" fill="#263A39" stroke="#263A39" stroke-width="13" stroke-linejoin="round"/>
  <path d="M466 394q-16 43-20 84 68 14 109 14m148-98q26 52 28 87" fill="none" stroke="#5D7870" stroke-width="9" stroke-linecap="round"/>
  <path d="M448 454q154 36 298 2l10 30q-150 35-322 1Z" fill="#D9975D" stroke="#263A39" stroke-width="8" stroke-linejoin="round"/>
  <path d="M359 476q47-20 109-13 138 34 256 8 70-18 113 2 17 8 2 20-46 35-126 34-78-1-130-8-137 25-232-22-15-8 8-21Z" fill="#263A39" stroke="#263A39" stroke-width="10" stroke-linejoin="round"/>
  <path d="M365 484q67 28 156 27m134 3q100 2 164-28" fill="none" stroke="#56716A" stroke-width="8" stroke-linecap="round"/>
  <path d="M558 477h67v26h-67z" fill="#F2CB83" stroke="#263A39" stroke-width="6"/>
  <path d="M576 483h32v13h-32z" fill="#263A39"/>

  <!-- Seat, with piped cushion and a deep front apron. -->
  <path d="M350 853q42-35 220-36 213-3 275 36l40 61q25 29 2 69-18 29-69 34-229 28-458-11-42-8-48-44-6-32 38-109Z" fill="#263A39" stroke="#263A39" stroke-width="13" stroke-linejoin="round"/>
  <path d="M339 916q129 50 260 50 146 2 274-51l-9 61q-229 50-502 1Z" fill="#A74739"/>
  <path d="M351 864q56-31 223-35 205-5 269 37l29 50q-16 34-74 40-211 25-426-7-47-7-43-43Z" fill="#DA7953" stroke="#EB9B70" stroke-width="6" stroke-linejoin="round"/>
  <path d="M351 864q56-31 223-35 205-5 269 37l29 50q-16 34-74 40-211 25-426-7-47-7-43-43Z" fill="url(#weave)"/>
  <path d="M380 890q202-61 444 0M359 942q251 60 488 2" fill="none" stroke="#F3A77B" stroke-width="6" opacity=".8" stroke-linecap="round"/>
  <path d="M400 981q198 32 398 2" fill="none" stroke="#DC8160" stroke-width="4" stroke-dasharray="4 11" stroke-linecap="round"/>

  <!-- The two chunky armrests keep the chair silhouette unmistakable. -->
  <path d="M263 773q18-33 54-27l87 25q29 9 40 44l19 103q7 39-30 39l-67-7q-54-8-77-55l-37-81q-7-22 11-41Z" fill="#263A39" stroke="#263A39" stroke-width="13" stroke-linejoin="round"/>
  <path d="M273 793q16-28 47-21l70 20q20 7 27 30l20 107-59-8q-42-5-57-38Z" fill="#B95540"/>
  <path d="M271 773q35-32 73-17l71 28q21 12 15 34-4 17-29 21-73-5-135-35-16-10 5-31Z" fill="#DA7956" stroke="#263A39" stroke-width="9" stroke-linejoin="round"/>
  <path d="M287 776q28-16 53-6l68 26" fill="none" stroke="#F3A67B" stroke-width="8" stroke-linecap="round"/>
  <path d="M327 854q19 41 35 43" fill="none" stroke="#E68967" stroke-width="6" stroke-linecap="round"/>
  <path d="M762 773q32-29 72-20l49 21q28 13 26 43l-17 79q-11 44-56 56l-37 5-40-116Z" fill="#263A39" stroke="#263A39" stroke-width="13" stroke-linejoin="round"/>
  <path d="M774 794q34-28 69-13l33 20q12 10 5 36l-17 63q-8 20-43 27l-39-99Z" fill="#AE4E3C"/>
  <path d="M755 786q47-41 91-24 50 20 51 51 0 19-27 24l-53 18q-47-21-70-39-14-10 8-30Z" fill="#D87550" stroke="#263A39" stroke-width="10" stroke-linejoin="round"/>
  <path d="M766 794q47-29 77-14l26 18" fill="none" stroke="#F3A579" stroke-width="8" stroke-linecap="round"/>

  <!-- An arm grows naturally out of the right armrest and curls up to the hand. -->
  <path d="M846 794q33-24 52-19 16 3 19 18l22-65q9-27 33-24 34 3 36 34l-27 72q-19 52-61 53l-69-25q-27-13-5-44Z" fill="#263A39" stroke="#263A39" stroke-width="12" stroke-linejoin="round"/>
  <path d="M855 805q25-19 40-15l29 23 29-78q6-15 23-12 13 3 11 19l-26 61q-13 36-36 38l-68-25Z" fill="#C05B42"/>
  <path d="M862 806q19-10 30-8m58-5 22-51" fill="none" stroke="#EA9270" stroke-width="8" stroke-linecap="round"/>
  <path d="m913 784 43 22-12 26-44-19Z" fill="#E2AB72" stroke="#263A39" stroke-width="8" stroke-linejoin="round"/>

  <!-- Oversized six-shooter: hammer, wooden grip, trigger guard, cylinder and barrel. -->
  <g stroke="#263A39" stroke-linejoin="round" stroke-linecap="round">
    <path d="M941 631q-22-10-29-28l-20 2q-8 15 1 24l31 22Z" fill="#526B68" stroke-width="9"/>
    <path d="M938 674q33-15 59 19l-13 68-38 58-59-27 37-75Z" fill="#263A39" stroke-width="10"/>
    <path d="M940 704q28-8 39 13l-13 42-24 40-34-15 23-54Z" fill="#D8A35F" stroke-width="6"/>
    <path d="M937 746q14 8 32 6m-49 31 31 10" fill="none" stroke="#F1CA87" stroke-width="5"/>
    <circle cx="950" cy="768" r="5" fill="#263A39" stroke="none"/>
    <path d="M969 694q63-9 66 30 1 36-40 44l-37-9 2-18 34 8q19 0 19-20-1-16-31-15Z" fill="#596E6B" stroke-width="9"/>
    <path d="M988 704q7 8 6 29" fill="none" stroke-width="7"/>
    <path d="M939 615h72l29 18-9 59-26 21h-63l-22-28 3-51Z" fill="#526C68" stroke-width="10"/>
    <path d="M934 625h82m-82 71h68" fill="none" stroke="#A0ABA0" stroke-width="5"/>
    <path d="M1010 621h90l15 11v31l-15 10h-84Z" fill="#607773" stroke-width="10"/>
    <path d="M1028 634h72M1029 657h71" fill="none" stroke="#A8AEA0" stroke-width="5"/>
    <path d="M1101 613h15v61h-15Z" fill="#263A39" stroke-width="8"/>
    <path d="M1059 608h18v11h-18z" fill="#263A39" stroke-width="6"/>
    <path d="M1017 675h56l-12 12h-46Z" fill="#263A39" stroke-width="6"/>
    <circle cx="977" cy="655" r="37" fill="#A4AAA0" stroke-width="9"/>
    <circle cx="977" cy="655" r="20" fill="#677C76" stroke-width="5"/>
    <circle cx="977" cy="655" r="6" fill="#263A39" stroke="none"/>
    <path d="M976 622v9m30 13-9 3m-14 35-3-9m-29-29 9 5" fill="none" stroke="#E4D8BA" stroke-width="5"/>
  </g>

  <!-- Cream leather glove overlaps the grip: he really is holding it. -->
  <path d="M917 731q-4-20 13-27 15-6 25 9l11 13q9 12-2 22l-9 4q22 8 24 21 2 12-13 16-10 4-19-2-17 3-26-4-23-2-27-24-3-15 23-28Z" fill="#F8E6C6" stroke="#263A39" stroke-width="10" stroke-linejoin="round"/>
  <path d="M929 731q5-11 15-8l18 17m-37 5q9-8 20-2l19 15m-46 2q13-7 26 0l14 17" fill="none" stroke="#263A39" stroke-width="6" stroke-linecap="round"/>
  <path d="M905 747q-7 22 14 32m46-46 2 7" fill="none" stroke="#FFF7E5" stroke-width="5" stroke-linecap="round"/>
  <path d="M903 795q10-10 27-5l22 12-9 26-44-18Z" fill="#F6DEC0" stroke="#263A39" stroke-width="8" stroke-linejoin="round"/>
  <path d="m912 802 25 10" fill="none" stroke="#CF9D78" stroke-width="4" stroke-linecap="round"/>

  <!-- A few deliberate glints, not gunfire. -->
  <g fill="none" stroke="#263A39" stroke-linecap="round" stroke-width="4">
    <path d="m1091 567 7-17m18 32 14-11m-66 11-11-10"/>
  </g>
  <g fill="#F8E9C8"><use href="#star" transform="translate(1092 592) scale(.72)"/><circle cx="1071" cy="549" r="3"/></g>

  <!-- Film-poster colophon. -->
  <g fill="#263A39" text-anchor="middle">
    <text x="600" y="1357" font-family="Impact, Arial Black, sans-serif" font-size="49" letter-spacing="3">NOBODY'S SITTING THIS ONE OUT.</text>
    <text x="600" y="1402" font-family="Avenir Next Condensed, Avenir, sans-serif" font-size="20" font-weight="800" letter-spacing="7">EST. HIGH NOON  •  ONE SEAT ONLY</text>
  </g>
  <g fill="#B75A41"><use href="#star" transform="translate(181 1383) scale(.9)"/><use href="#star" transform="translate(1019 1383) scale(.9)"/></g>
</svg>
