<svg xmlns="http://www.w3.org/2000/svg" viewBox="0 0 1200 1200" width="1200" height="1200">
<title>Chair with a gun</title>
<desc>A cheeky mid-century lounge chair takes a dramatic detective pose, gripping a small revolver.</desc>
<defs>
  <pattern id="grain" width="92" height="92" patternUnits="userSpaceOnUse"><circle cx="9" cy="20" r="1.2" fill="#263b45" opacity=".14"/><circle cx="59" cy="72" r="1" fill="#263b45" opacity=".11"/><circle cx="75" cy="13" r="1.5" fill="#263b45" opacity=".12"/><circle cx="29" cy="64" r=".9" fill="#263b45" opacity=".1"/></pattern>
  <linearGradient id="wall" x2="0" y2="1"><stop stop-color="#f6eddb"/><stop offset="1" stop-color="#e8d5b7"/></linearGradient>
  <linearGradient id="upholstery" x1="0" y1="0" x2="1" y2="1"><stop stop-color="#e88352"/><stop offset=".52" stop-color="#cc603f"/><stop offset="1" stop-color="#aa493b"/></linearGradient>
  <linearGradient id="seat" x1="0" y1="0" x2=".85" y2="1"><stop stop-color="#f4a46d"/><stop offset=".5" stop-color="#d7754d"/><stop offset="1" stop-color="#b8513b"/></linearGradient>
  <filter id="shadow"><feGaussianBlur stdDeviation="16"/></filter>
</defs>
<rect width="1200" height="1200" fill="url(#wall)"/>
<rect width="1200" height="1200" fill="url(#grain)"/>
<circle cx="609" cy="529" r="408" fill="#e5cba4" opacity=".55"/>
<circle cx="609" cy="529" r="372" fill="none" stroke="#cfae85" stroke-width="2" opacity=".55"/>
<path d="M0 936 H1200" stroke="#b99672" stroke-width="3"/>
<ellipse cx="595" cy="1016" rx="430" ry="34" fill="#8c6a50" opacity=".22" filter="url(#shadow)"/>
<!-- atmospheric little stars -->
<g fill="#ad693f" opacity=".72"><path d="M938 242 l8 21 21 8-21 8-8 21-8-21-21-8 21-8z"/><path d="M244 244 l5 13 13 5-13 5-5 13-5-13-13-5 13-5z"/><circle cx="1012" cy="488" r="4"/><circle cx="163" cy="604" r="5"/></g>
<!-- chair legs behind body -->
<g stroke="#263b45" stroke-width="12" stroke-linejoin="round">
 <path d="M326 730 L288 1003 Q285 1020 307 1024 L336 1022 Q348 1019 350 1005 L421 752Z" fill="#82503c"/>
 <path d="M696 738 L799 1005 Q804 1020 822 1020 L850 1015 Q862 1010 856 994 L791 717Z" fill="#82503c"/>
 <path d="M302 985 L349 988 M798 987 L846 981" stroke="#e9ae6b" stroke-width="12"/>
</g>
<!-- back chair frame -->
<path d="M296 191 Q296 140 346 132 Q471 111 579 161 Q624 181 625 227 L603 568 Q597 601 554 609 L303 613 Q257 610 256 567Z" fill="#75443c" stroke="#263b45" stroke-width="15"/>
<path d="M313 204 Q312 171 350 166 Q469 147 563 190 Q594 202 591 237 L575 538 Q572 569 541 576 L310 578 Q284 575 285 548Z" fill="url(#upholstery)" stroke="#edaa77" stroke-width="6"/>
<path d="M328 219 Q330 191 362 189 Q476 170 551 210" fill="none" stroke="#ffbf86" stroke-width="9" stroke-linecap="round" opacity=".65"/>
<path d="M556 244 L541 522 Q538 544 511 550" fill="none" stroke="#8d3d36" stroke-width="8" opacity=".5"/>
<!-- button tufting -->
<g fill="#8f443a" stroke="#f0a06c" stroke-width="4"><circle cx="365" cy="317" r="8"/><circle cx="508" cy="331" r="8"/><circle cx="361" cy="478" r="8"/><circle cx="501" cy="481" r="8"/></g>
<g stroke="#ad523f" stroke-width="3" opacity=".55"><path d="M368 326 Q388 395 363 469 M500 340 Q478 398 498 473 M374 312 Q444 331 500 330 M368 481 Q426 462 492 480" fill="none"/></g>
<!-- expressive face -->
<path d="M334 373 Q363 356 388 371 M453 370 Q484 355 515 367" fill="none" stroke="#263b45" stroke-width="10" stroke-linecap="round"/>
<ellipse cx="365" cy="392" rx="9" ry="13" fill="#263b45"/><ellipse cx="481" cy="389" rx="9" ry="13" fill="#263b45"/>
<path d="M397 447 Q432 464 461 440" fill="none" stroke="#263b45" stroke-width="8" stroke-linecap="round"/>
<!-- back support posts -->
<path d="M278 544 L275 732 M586 541 L608 712" stroke="#263b45" stroke-width="20" stroke-linecap="round"/>
<!-- left chair arm, hand relaxed -->
<path d="M276 576 Q218 571 212 625 Q204 680 251 704 L337 740 L366 677 L289 645Z" fill="#a54d3b" stroke="#263b45" stroke-width="13" stroke-linejoin="round"/>
<path d="M254 601 Q231 618 245 647" fill="none" stroke="#e99365" stroke-width="10" stroke-linecap="round"/>
<!-- seat cushion -->
<path d="M327 565 Q477 531 640 560 L752 611 Q783 627 781 674 L780 719 Q772 751 728 762 L339 776 Q283 778 268 740 L259 678 Q253 615 327 565Z" fill="#75443c" stroke="#263b45" stroke-width="15" stroke-linejoin="round"/>
<path d="M322 576 Q472 548 633 572 L737 620 Q752 629 748 657 Q740 693 701 698 L331 712 Q294 714 280 682 Q270 632 322 576Z" fill="url(#seat)" stroke="#f7b47a" stroke-width="6"/>
<path d="M276 690 Q302 735 355 733 L703 721 Q754 720 771 684" fill="none" stroke="#9d483a" stroke-width="8"/>
<path d="M326 600 Q427 576 564 588" fill="none" stroke="#ffd09a" stroke-width="8" opacity=".6" stroke-linecap="round"/>
<!-- outstretched chair arm -->
<path d="M668 594 Q708 565 745 583 L832 628 L887 558 L926 591 L858 693 Q843 715 817 707 L716 674 Q688 669 664 651Z" fill="#b4533d" stroke="#263b45" stroke-width="14" stroke-linejoin="round"/>
<path d="M749 604 L825 652" fill="none" stroke="#ef9b65" stroke-width="11" stroke-linecap="round"/>
<circle cx="692" cy="618" r="17" fill="#e99b68" stroke="#263b45" stroke-width="8"/>
<!-- revolver pointing upward to the right -->
<g transform="translate(858 492) rotate(-19)">
 <!-- grip clutched by hand behind weapon -->
 <path d="M28 110 Q-1 108 -11 132 Q-19 151 4 164 L62 184 Q90 187 92 160 L83 122Z" fill="#eb9b66" stroke="#263b45" stroke-width="10"/>
 <path d="M-3 132 Q18 116 49 137 M0 155 Q28 139 55 159" fill="none" stroke="#a7503d" stroke-width="7" stroke-linecap="round"/>
 <!-- gun grip -->
 <path d="M79 104 L122 127 L92 207 Q84 222 70 214 L42 198 Q33 192 41 178Z" fill="#855543" stroke="#263b45" stroke-width="10" stroke-linejoin="round"/>
 <path d="M69 179 L80 185 M79 161 L92 168 M91 144 L102 151" stroke="#d29964" stroke-width="5"/>
 <!-- trigger guard -->
 <path d="M123 108 Q155 135 127 159 Q107 174 88 148" fill="none" stroke="#263b45" stroke-width="9"/>
 <!-- frame -->
 <path d="M79 63 L171 64 L186 86 L159 119 L111 124 L77 108Z" fill="#53666a" stroke="#263b45" stroke-width="10" stroke-linejoin="round"/>
 <!-- cylinder -->
 <rect x="115" y="55" width="48" height="61" rx="13" fill="#82938f" stroke="#263b45" stroke-width="9"/>
 <circle cx="139" cy="84" r="11" fill="#4e6469" stroke="#263b45" stroke-width="5"/>
 <circle cx="139" cy="84" r="3" fill="#d6d3b5"/>
 <!-- barrel -->
 <path d="M162 55 L293 55 Q303 56 304 67 L304 87 Q303 97 292 98 L166 98Z" fill="#66797a" stroke="#263b45" stroke-width="10" stroke-linejoin="round"/>
 <path d="M190 69 H278" stroke="#c7c7aa" stroke-width="6" stroke-linecap="round"/>
 <path d="M298 60 L312 61 L312 91 L298 93" fill="#445c60" stroke="#263b45" stroke-width="7"/>
 <path d="M186 54 L193 42 L223 42 L227 54" fill="#53666a" stroke="#263b45" stroke-width="7" stroke-linejoin="round"/>
 <!-- hammer -->
 <path d="M83 66 Q65 40 53 44 L60 32 Q84 27 101 63" fill="#53666a" stroke="#263b45" stroke-width="8" stroke-linejoin="round"/>
 <!-- fingers curling around grip -->
 <path d="M41 139 Q63 124 85 143 M43 161 Q65 148 79 164 M48 181 Q65 170 74 184" fill="none" stroke="#263b45" stroke-width="8" stroke-linecap="round"/>
 </g>
<!-- small graphic muzzle sparkle -->
<g transform="translate(1166 361)" stroke="#c67949" stroke-width="5" stroke-linecap="round"><path d="M0 -23 V-39 M0 23 V39 M-23 0 H-38 M-14 -14 L-26 -26 M-14 14 L-26 26"/></g>
<!-- framing typography -->
<text x="80" y="92" fill="#263b45" font-family="Georgia,serif" font-size="36" letter-spacing="7">SEATED &amp; DANGEROUS</text>
<path d="M80 108 H1120" stroke="#263b45" stroke-width="3"/>
<text x="80" y="1122" fill="#263b45" font-family="Georgia,serif" font-style="italic" font-size="26" letter-spacing="2">TAKE A SEAT.  MAKE A STAND.</text>
<text x="1060" y="1122" fill="#263b45" font-family="Georgia,serif" font-size="25">01 / 01</text>
</svg>
